<?xml version="1.0" ?><!DOCTYPE svg  PUBLIC '-//W3C//DTD SVG 1.1//EN'  'http://www.w3.org/Graphics/SVG/1.1/DTD/svg11.dtd'><svg height="64px" id="Icons" version="1.1" viewBox="0 0 64 64" width="64px" xml:space="preserve" xmlns="http://www.w3.org/2000/svg" xmlns:xlink="http://www.w3.org/1999/xlink"  fill="#fff"><g id="international"><path d="M53,48.964c3.75-4.636,6-10.536,6-16.964s-2.25-12.328-6-16.964V15h-0.028C48.021,8.9,40.468,5,32,5   S15.979,8.9,11.028,15H11v0.036C7.25,19.672,5,25.572,5,32s2.25,12.328,6,16.964V49h0.028C15.979,55.1,23.532,59,32,59   s16.021-3.9,20.972-10H53V48.964z M48.982,31.5c-0.094-5.695-1.771-11.001-4.615-15.5h8.104c3.363,4.293,5.405,9.663,5.517,15.5   H48.982z M47.982,31.5H32.5V16h10.653C46.119,20.459,47.885,25.776,47.982,31.5z M32.5,15V6.363   C36.447,8.45,39.865,11.41,42.475,15H32.5z M31.5,15h-9.975c2.609-3.59,6.027-6.55,9.975-8.637V15z M31.5,16v15.5H16.018   c0.098-5.724,1.862-11.041,4.829-15.5H31.5z M15.018,31.5H6.013c0.111-5.837,2.153-11.207,5.516-15.5h8.104   C16.788,20.499,15.111,25.805,15.018,31.5z M15.018,32.5c0.094,5.695,1.771,11.001,4.615,15.5h-8.104   c-3.363-4.293-5.405-9.663-5.516-15.5H15.018z M16.018,32.5H31.5V48H20.847C17.88,43.541,16.116,38.224,16.018,32.5z M31.5,49   v8.638C27.552,55.55,24.135,52.59,21.525,49H31.5z M32.5,49h9.975c-2.609,3.59-6.027,6.55-9.975,8.638V49z M32.5,48V32.5h15.482   c-0.098,5.724-1.863,11.041-4.829,15.5H32.5z M48.982,32.5h9.005c-0.111,5.837-2.153,11.207-5.517,15.5h-8.104   C47.212,43.501,48.889,38.195,48.982,32.5z M51.646,15h-7.938c-2.505-3.632-5.79-6.676-9.613-8.908   C41.088,6.652,47.306,9.99,51.646,15z M29.904,6.092c-3.823,2.232-7.108,5.276-9.613,8.908h-7.938   C16.694,9.99,22.912,6.652,29.904,6.092z M12.353,49h7.938c2.504,3.632,5.79,6.677,9.613,8.908   C22.912,57.348,16.694,54.011,12.353,49z M34.096,57.908c3.822-2.231,7.108-5.276,9.613-8.908h7.938   C47.306,54.011,41.088,57.348,34.096,57.908z" fill="#fff"/></g></svg>