<!-- <text x="-269" y="246" fill="#000000" font-size="5px" font-weight="bold" font-family="'Helvetica Neue', Helvetica, Arial-Unicode, Arial, Sans-serif">Created by Daouna Jeong</text><text x="-269" y="251" fill="#000000" font-size="5px" font-weight="bold" font-family="'Helvetica Neue', Helvetica, Arial-Unicode, Arial, Sans-serif">from the Noun Project</text> -->

<svg xmlns="http://www.w3.org/2000/svg" xmlns:xlink="http://www.w3.org/1999/xlink" version="1.1" x="0px" y="0px" viewBox="-269 131 100 125" enable-background="new -269 131 100 100" xml:space="preserve">
<path fill="#8c8c8c" d="M-216.3,143.1c-22.2-1.5-40.7,16.1-40.7,37.9c0,1.6,0.1,3.1,0.3,4.6c0.1,0.8,1.1,1.2,1.7,0.6l3.7-3.7  c0.2-0.2,0.3-0.5,0.3-0.8c0-0.2,0-0.5,0-0.7c0-18.4,15.6-33.2,34.3-31.9c15.8,1.1,28.5,13.9,29.6,29.6c1.3,18.7-13.5,34.3-31.9,34.3  c-12.4,0-23.1-7.1-28.4-17.4l12.2-12.2l13.2,13.2c0.4,0.4,1,0.4,1.4,0l18.8-18.8v5.7c0,0.6,0.4,1,1,1h4c0.6,0,1-0.4,1-1v-14.9  c0-0.6-0.4-1-1-1h-14.9c-0.6,0-1,0.4-1,1v4c0,0.6,0.4,1,1,1h5.7l-15.2,15.2l-13.2-13.2c-0.4-0.4-1-0.4-1.4,0l-18.2,18.2  c-0.3,0.3-0.4,0.7-0.2,1.1C-248.8,209-235,219-219,219c21.9,0,39.5-18.5,37.9-40.7C-182.4,159.6-197.6,144.4-216.3,143.1z"/>
</svg>