<?xml version="1.0" encoding="iso-8859-1"?>
<!-- Generator: Adobe Illustrator 18.0.0, SVG Export Plug-In . SVG Version: 6.00 Build 0)  -->
<!DOCTYPE svg PUBLIC "-//W3C//DTD SVG 1.1//EN" "http://www.w3.org/Graphics/SVG/1.1/DTD/svg11.dtd">
<svg version="1.1" id="Capa_1" xmlns="http://www.w3.org/2000/svg" xmlns:xlink="http://www.w3.org/1999/xlink" x="0px" y="0px"
	 viewBox="0 0 58 58" style="enable-background:new 0 0 58 58;" xml:space="preserve">
<g>
	<path transform="translate(0,-13) scale(1.3)" style="fill:#bfbfbf;" d="M44,18.394v21.141c0,2.722-2.207,4.929-4.929,4.929L22,44.535l-10,11v-11H4.929
		C2.207,44.535,0,42.328,0,39.606l0-21.141c0-2.722,2.207-4.929,4.929-4.929l34.141-0.071C41.793,13.465,44,15.672,44,18.394z"/>
	<!-- 
<path style="fill:#FFFFFF;" d="M22,24.465H9c-0.553,0-1-0.448-1-1s0.447-1,1-1h13c0.553,0,1,0.448,1,1S22.553,24.465,22,24.465z"/>
	<path style="fill:#FFFFFF;" d="M35,30.465H9c-0.553,0-1-0.448-1-1s0.447-1,1-1h26c0.553,0,1,0.448,1,1S35.553,30.465,35,30.465z"/>
	<path style="fill:#FFFFFF;" d="M35,36.465H9c-0.553,0-1-0.448-1-1s0.447-1,1-1h26c0.553,0,1,0.448,1,1S35.553,36.465,35,36.465z"/>
 -->
	
	<path transform="translate(15,10) scale(1.4)"  fill="#eef2f7" d="m10.201,.758l2.478,5.865 6.344,.545c0.44,0.038 0.619,0.587 0.285,0.876l-4.812,4.169 1.442,6.202c0.1,0.431-0.367,0.77-0.745,0.541l-5.452-3.288-5.452,3.288c-0.379,0.228-0.845-0.111-0.745-0.541l1.442-6.202-4.813-4.17c-0.334-0.289-0.156-0.838 0.285-0.876l6.344-.545 2.478-5.864c0.172-0.408 0.749-0.408 0.921,0z"/>
</g>
<g>
</g>
<g>
</g>
<g>
</g>
<g>
</g>
<g>
</g>
<g>
</g>
<g>
</g>
<g>
</g>
<g>
</g>
<g>
</g>
<g>
</g>
<g>
</g>
<g>
</g>
<g>
</g>
<g>
</g>
</svg>
