<?xml version="1.0" encoding="iso-8859-1"?>
<!-- Generator: Adobe Illustrator 18.1.1, SVG Export Plug-In . SVG Version: 6.00 Build 0)  -->
<svg version="1.1" id="Capa_1" xmlns="http://www.w3.org/2000/svg" xmlns:xlink="http://www.w3.org/1999/xlink" x="0px" y="0px"
	 viewBox="0 0 311.68 311.68" style="enable-background:new 0 0 311.68 311.68;" xml:space="preserve">
<g>
	<g>
		<g>
			<path style="fill:#010002;" d="M238.674,0H73.006C61.997,0,53.044,8.958,53.044,19.972v218.922
				c0,10.998,8.953,19.95,19.961,19.95h57.611l3.481-11.096H73.006c-4.89,0-8.866-3.971-8.866-8.855V19.972
				c0-4.895,3.976-8.877,8.866-8.877h165.668c4.879,0,8.86,3.981,8.86,8.877v218.922c0,4.879-3.976,8.855-8.86,8.855h-3.824
				l4.188,11.096c10.835-0.19,19.597-9.072,19.597-19.95V19.972C258.63,8.958,249.683,0,238.674,0z"/>
		</g>
		<g>
			<path style="fill:#010002;" d="M219.839,239.536l1.11-1.023c4.71-4.71,6.831-11.248,5.814-17.905l-0.054-0.375l0.147-0.343
				c1.023-2.382,1.871-5.037,2.529-7.919l0.082-0.375l0.288-0.267c3.954-3.943,6.141-9.197,6.141-14.811
				c0-7.539-3.954-14.299-10.595-18.079l-0.315-0.19l-0.185-0.337c-0.305-0.549-0.642-1.071-0.99-1.594l-0.31-0.479l-0.131-0.615
				c0.027-5.57-2.143-10.824-6.103-14.783c-3.65-3.66-8.572-5.809-13.848-6.032l-0.723-0.038l-0.364-0.615
				c-3.84-6.396-10.525-10.22-17.873-10.22c-7.424,0-14.131,3.845-17.938,10.302l-0.555,0.941l-1.028-0.359
				c-7.354-2.518-16.089-0.5-21.539,4.933c-5.33,5.336-7.321,13.228-5.178,20.587l0.141,0.49l-0.93,1.985l-0.326,0.239
				c-5.488,3.998-8.637,10.144-8.637,16.861c0,5.988,2.524,11.52,7.109,15.567l0.288,0.25l0.109,0.37
				c0.419,1.382,0.914,2.763,1.518,4.199l0.136,0.337l-0.054,0.364c-0.99,6.69,1.126,13.217,5.825,17.916
				c1.262,1.262,2.676,2.333,4.34,3.285l0.919,0.538l-13.173,42.104c-0.174,0.549,0.022,1.142,0.484,1.474
				c0.457,0.332,1.066,0.354,1.55,0.033l16.78-11.379l7.207,21.082c0.185,0.549,0.696,0.903,1.267,0.903h0.011
				c0.571,0,1.088-0.381,1.256-0.93l13.244-42.175l1.207,0.299c4.09,0.99,8.295,0.702,12.211-0.832l1.256-0.5l22.219,58.388
				c0.196,0.528,0.691,0.87,1.246,0.87c0.022,0,0.033,0,0.044,0c0.571-0.027,1.071-0.408,1.24-0.957l6.69-22.023l15.888,9.214
				c0.49,0.272,1.099,0.223,1.523-0.141c0.43-0.354,0.582-0.957,0.392-1.485L219.839,239.536z M182.162,237.453
				c-20.875,0-37.845-16.992-37.845-37.856c0-20.881,16.975-37.867,37.845-37.867s37.867,16.986,37.867,37.867
				C220.029,220.462,203.038,237.453,182.162,237.453z"/>
		</g>
		<g>
			<g>
				<rect x="95.708" y="39.308" style="fill:#010002;" width="120.377" height="17.53"/>
			</g>
			<g>
				<rect x="95.708" y="79.541" style="fill:#010002;" width="120.377" height="17.536"/>
			</g>
		</g>
	</g>
</g>
<g>
</g>
<g>
</g>
<g>
</g>
<g>
</g>
<g>
</g>
<g>
</g>
<g>
</g>
<g>
</g>
<g>
</g>
<g>
</g>
<g>
</g>
<g>
</g>
<g>
</g>
<g>
</g>
<g>
</g>
</svg>
