<svg xmlns="http://www.w3.org/2000/svg" xmlns:xlink="http://www.w3.org/1999/xlink" version="1.1" id="Capa_1" x="0px" y="0px" viewBox="0 0 333.324 333.324" style="fill: rgb(255, 255, 255);" xml:space="preserve">
<g style="fill: rgb(255, 255, 255);">
	<path style="fill: rgb(255, 255, 255);" d="M125.255,59.513l33.907-33.907v149.451c0,4.143,3.358,7.5,7.5,7.5s7.5-3.357,7.5-7.5V25.606   l33.907,33.907c1.464,1.464,3.384,2.196,5.303,2.196s3.839-0.732,5.303-2.196c2.929-2.93,2.929-7.678,0-10.607l-46.71-46.71   c-2.929-2.928-7.678-2.928-10.606,0l-46.71,46.71c-2.929,2.93-2.929,7.678,0,10.607C117.577,62.441,122.326,62.441,125.255,59.513z   "></path>
	<path style="fill: rgb(255, 255, 255);" d="M263.328,87.557h-61.645c-4.142,0-7.5,3.357-7.5,7.5s3.358,7.5,7.5,7.5h54.145v215.767H77.495   V102.557h54.145c4.142,0,7.5-3.357,7.5-7.5s-3.358-7.5-7.5-7.5H69.995c-4.142,0-7.5,3.357-7.5,7.5v230.767   c0,4.143,3.358,7.5,7.5,7.5h193.333c4.142,0,7.5-3.357,7.5-7.5V95.057C270.828,90.915,267.47,87.557,263.328,87.557z"></path>
</g>
</svg>