<?xml version="1.0" encoding="utf-8"?>
<!-- Generator: Adobe Illustrator 15.0.0, SVG Export Plug-In . SVG Version: 6.00 Build 0)  -->
<!DOCTYPE svg PUBLIC "-//W3C//DTD SVG 1.1//EN" "http://www.w3.org/Graphics/SVG/1.1/DTD/svg11.dtd">
<svg version="1.1" id="Layer_1" xmlns="http://www.w3.org/2000/svg" xmlns:xlink="http://www.w3.org/1999/xlink" x="0px" y="0px"
	 width="512px" height="512px" fill="#c6c6c6" viewBox="0 0 512 512" enable-background="new 0 0 512 512" xml:space="preserve">
	 
<g transform="translate(60,-10) scale(0.9)">	
	<path d="M371.533,322.432H140.467c-77.577,0-140.466,62.909-140.466,140.487v12.601h512v-12.601 C512,385.341,449.112,322.432,371.533,322.432z"/>
	<path d="M258.744,293.214c70.895,0,128.365-57.472,128.365-128.366c0-70.896-57.473-128.367-128.365-128.367 c-70.896,0-128.368,57.472-128.368,128.367C130.377,235.742,187.848,293.214,258.744,293.214z"/>
</g>
	<path transform="translate(-10,220) scale(13)" fill="#e46767" d="M16.4,4C14.6,4,13,4.9,12,6.3C11,4.9,9.4,4,7.6,4C4.5,4,2,6.5,2,9.6C2,14,12,22,12,22s10-8,10-12.4C22,6.5,19.5,4,16.4,4z"/>

</svg>
